solid Part1
   facet normal -1.000000e+00 -0.000000e+00 -0.000000e+00
      outer loop
         vertex 0.000000e+00 4.419600e+01 7.962044e+01
         vertex 0.000000e+00 4.419600e+01 0.000000e+00
         vertex 0.000000e+00 0.000000e+00 7.962044e+01
      endloop
   endfacet
   facet normal -1.000000e+00 0.000000e+00 0.000000e+00
      outer loop
         vertex 0.000000e+00 0.000000e+00 7.962044e+01
         vertex 0.000000e+00 4.419600e+01 0.000000e+00
         vertex 0.000000e+00 0.000000e+00 0.000000e+00
      endloop
   endfacet
   facet normal 0.000000e+00 0.000000e+00 1.000000e+00
      outer loop
         vertex 1.237615e+02 4.419600e+01 7.962044e+01
         vertex 0.000000e+00 4.419600e+01 7.962044e+01
         vertex 1.237615e+02 0.000000e+00 7.962044e+01
      endloop
   endfacet
   facet normal 0.000000e+00 0.000000e+00 1.000000e+00
      outer loop
         vertex 1.237615e+02 0.000000e+00 7.962044e+01
         vertex 0.000000e+00 4.419600e+01 7.962044e+01
         vertex 0.000000e+00 0.000000e+00 7.962044e+01
      endloop
   endfacet
   facet normal 1.000000e+00 0.000000e+00 -0.000000e+00
      outer loop
         vertex 1.237615e+02 4.419600e+01 0.000000e+00
         vertex 1.237615e+02 4.419600e+01 7.962044e+01
         vertex 1.237615e+02 0.000000e+00 0.000000e+00
      endloop
   endfacet
   facet normal 1.000000e+00 0.000000e+00 0.000000e+00
      outer loop
         vertex 1.237615e+02 0.000000e+00 0.000000e+00
         vertex 1.237615e+02 4.419600e+01 7.962044e+01
         vertex 1.237615e+02 0.000000e+00 7.962044e+01
      endloop
   endfacet
   facet normal 0.000000e+00 0.000000e+00 -1.000000e+00
      outer loop
         vertex 0.000000e+00 4.419600e+01 0.000000e+00
         vertex 1.237615e+02 4.419600e+01 0.000000e+00
         vertex 0.000000e+00 0.000000e+00 0.000000e+00
      endloop
   endfacet
   facet normal 0.000000e+00 0.000000e+00 -1.000000e+00
      outer loop
         vertex 0.000000e+00 0.000000e+00 0.000000e+00
         vertex 1.237615e+02 4.419600e+01 0.000000e+00
         vertex 1.237615e+02 0.000000e+00 0.000000e+00
      endloop
   endfacet
   facet normal 0.000000e+00 1.000000e+00 0.000000e+00
      outer loop
         vertex 1.237615e+02 4.419600e+01 7.962044e+01
         vertex 1.237615e+02 4.419600e+01 0.000000e+00
         vertex 0.000000e+00 4.419600e+01 7.962044e+01
      endloop
   endfacet
   facet normal 0.000000e+00 1.000000e+00 0.000000e+00
      outer loop
         vertex 0.000000e+00 4.419600e+01 7.962044e+01
         vertex 1.237615e+02 4.419600e+01 0.000000e+00
         vertex 0.000000e+00 4.419600e+01 0.000000e+00
      endloop
   endfacet
   facet normal 0.000000e+00 -1.000000e+00 0.000000e+00
      outer loop
         vertex 1.237615e+02 0.000000e+00 0.000000e+00
         vertex 1.237615e+02 0.000000e+00 7.962044e+01
         vertex 0.000000e+00 0.000000e+00 0.000000e+00
      endloop
   endfacet
   facet normal 0.000000e+00 -1.000000e+00 0.000000e+00
      outer loop
         vertex 0.000000e+00 0.000000e+00 0.000000e+00
         vertex 1.237615e+02 0.000000e+00 7.962044e+01
         vertex 0.000000e+00 0.000000e+00 7.962044e+01
      endloop
   endfacet
endsolid